<?xml version="1.0" encoding="UTF-8" standalone="no"?><!DOCTYPE svg PUBLIC "-//W3C//DTD SVG 1.1//EN" "http://www.w3.org/Graphics/SVG/1.1/DTD/svg11.dtd"><svg width="100%" height="100%" viewBox="0 0 893 1000" version="1.1" xmlns="http://www.w3.org/2000/svg" xmlns:xlink="http://www.w3.org/1999/xlink" xml:space="preserve" xmlns:serif="http://www.serif.com/" style="fill-rule:evenodd;clip-rule:evenodd;stroke-linejoin:round;stroke-miterlimit:2;"><rect id="Artboard1" x="0" y="0" width="892.378" height="1000" style="fill:none;"/><clipPath id="_clip1"><rect x="0" y="0" width="892.378" height="1000"/></clipPath><g clip-path="url(#_clip1)"><clipPath id="_clip2"><rect x="0" y="-5.701" width="903.814" height="1005.7"/></clipPath><g clip-path="url(#_clip2)"><path d="M475.905,0l-0,512.77l205.686,-0l-0,-55.942l-147.616,-0l0,-362.794l268.076,157.481c14.23,6.913 31.754,36.989 30.48,52.276l-0,388.923c1.134,13.671 -12.77,39.195 -25.913,49.371c-1.538,1.18 -3.06,2.159 -4.567,2.889l-17.384,10.223l-310.098,182.15c-6.214,3.806 -17.664,6.804 -29.268,6.711c-11.59,0.093 -23.024,-2.905 -29.269,-6.711l-327.481,-192.373c-14.215,-6.913 -31.754,-36.973 -30.465,-52.26l0,-388.923c-1.289,-15.287 16.25,-45.363 30.465,-52.276l264.564,-155.399l-0,516.794l328.476,-0l-0,-55.942l-270.39,-0l-0,-554.529l-3.294,1.6l0,-2.175c-7.627,2.315 -15.053,5.438 -22.106,9.523l-327.482,192.373c-34.799,21.904 -57.03,60.012 -58.319,100.031l-0,388.923c1.289,40.003 23.52,78.126 58.319,100.016l327.482,192.372c18.285,10.595 38.978,14.805 59.5,14.898c20.553,-0.093 41.23,-4.303 59.515,-14.898l308.7,-181.342l18.797,-11.03l-0.186,-0.296l0.186,0.296c2.066,-1.321 4.117,-2.688 6.09,-4.102l0.093,-0.077c31.226,-22.356 50.909,-58.257 52.121,-95.837l-0,-388.923c-1.29,-40.019 -23.505,-78.127 -58.304,-100.031l-327.497,-192.373c-9.15,-5.297 -18.875,-8.995 -28.911,-11.387" style="fill:#00983a;fill-rule:nonzero;"/></g></g></svg>